<?xml version="1.0" encoding="UTF-8"?>
<svg  version="1.1" viewBox="0 0 1200 1200" xmlns="http://www.w3.org/2000/svg" fill="#2bbc89">
<style>
    g { background:red}
</style>
 <g>
  <path d="m711.56 501c0.84375 0 1.5938 0 2.4375-0.09375 8.0625-0.75 14.719-5.4375 17.719-12.469 3.8438-9 2.7188-17.719-3.0938-24.469-2.5312-2.9062-6.9375-3.2812-9.9375-0.75-2.9062 2.5312-3.2812 6.9375-0.75 9.9375 1.6875 1.9688 3 4.5938 0.84375 9.75-1.3125 3-4.0312 3.8438-6.1875 4.0312-4.0312 0.375-8.3438-1.5-10.406-4.5938-3.0938-4.5-1.0312-10.594 1.125-14.812 4.9688-9.5625 10.781-15.375 16.688-16.594 6.375-1.3125 11.719 2.8125 11.906 2.9062 3 2.4375 7.4062 2.0625 9.8438-0.9375 2.5312-3 2.0625-7.4062-0.84375-9.9375-0.375-0.375-10.406-8.5312-23.531-5.9062-10.406 2.0625-19.312 10.125-26.531 23.906-7.5938 14.531-3.4688 24.469-0.375 29.156 4.5938 6.75 12.656 10.875 21 10.875z"/>
  <path d="m429.75 468.75c8.625 0 15.656-9.4688 15.656-21.188s-7.0312-21.188-15.656-21.188-15.656 9.4688-15.656 21.188 7.0312 21.188 15.656 21.188z"/>
  <path d="m568.97 468.75c8.625 0 15.656-9.4688 15.656-21.188s-7.0312-21.188-15.656-21.188-15.656 9.4688-15.656 21.188 7.0312 21.188 15.656 21.188z"/>
  <path d="m546.09 576.56c-7.0312 4.875-20.531 13.312-37.219 19.125-14.156 4.875-29.812 8.625-39.188 10.594-3.5625 0.75-4.5938 5.3438-1.6875 7.5 9.75 7.3125 29.719 17.906 55.688 9 28.031-9.5625 29.906-31.781 28.875-43.219-0.28125-3.1875-3.9375-4.875-6.5625-3z"/>
  <path d="m600 150c-27.469 0-54.281 2.3438-80.531 6.6562-42.844-7.125-98.156-6.75-138.28 27.281-10.969 9.2812-20.531 20.625-28.875 33.188-146.06 85.5-244.5 243.94-244.5 425.06 0 271.41 220.78 492.19 492.19 492.19s492.19-220.78 492.19-492.19-220.78-492.19-492.19-492.19zm473.44 492.19c0 84.094-22.125 163.12-60.75 231.66-24.844-40.688-66.375-72.562-117.28-90.562-32.625-116.72-57.562-247.03-73.688-393.09 0 0-18.281-136.59-64.125-194.34 183.75 65.062 315.84 240.56 315.84 446.34zm-405.09-110.53c5.0625 5.0625 14.062 11.156 25.406 15v232.12c-18.281 47.438-66.844 65.25-105.66 58.406-25.969-4.5938-53.719-21.938-53.719-56.719v-99.094c40.781-12.469 80.719-33.75 103.31-62.531 3.1875-4.125 2.4375-9.9375-1.5938-13.219-4.125-3.1875-9.9375-2.4375-13.125 1.5938-46.969 60-176.44 81.844-203.25 61.781-18.469-13.875-35.906-76.406-43.969-148.22 11.719 6.8438 25.312 10.781 39.656 10.781 10.969 0 21.469-2.3438 31.031-6.4688-1.7812 4.6875-3.0938 9-3.375 12.375-0.84375 8.9062 1.6875 16.875 7.4062 23.25 13.688 15 40.781 15.375 43.875 15.375 5.1562 0 9.2812-4.2188 9.2812-9.375 0.09375-5.1562-4.125-9.375-9.2812-9.375-5.625 0-23.156-1.7812-30-9.2812-2.1562-2.4375-3-5.1562-2.625-8.8125 0.75-7.5 12.281-29.438 22.031-45.938 0.65625-1.125 1.3125-2.25 1.9688-3.2812s1.3125-2.1562 1.875-3.1875c0.09375-0.09375 0.09375-0.28125 0.1875-0.46875 6.75-12.844 10.688-27.656 10.688-43.406 0-45.281-32.062-82.781-73.312-87.938 27.75-5.5312 55.688-13.875 76.688-33.094 47.719-43.688 67.125-73.781 67.125-73.781 2.4375 75.188 60.469 92.625 74.438 103.12 6.1875 4.5938 8.9062 24.188 11.438 44.438-14.719-24.75-40.688-41.344-70.219-41.344-45.844 0-83.062 39.75-83.062 88.594s37.219 88.594 83.062 88.594 80.906-37.594 82.969-84.562c0.65625 0.375 1.3125 0.65625 2.0625 0.5625 3.8438-0.375 8.4375-3.2812 13.031-7.5l0.84375-9c3 0.28125 6-0.75 8.0625-3.1875 6.6562-7.9688 27.938-28.594 44.719-28.219 6.0938 0.09375 10.969 3 15.562 9.0938 13.406 17.906 18.094 48.375 11.531 75.938-4.6875 20.062-14.531 35.062-27 41.344-30.75 15.375-53.812-6.75-54.75-7.6875-3.6562-3.6562-9.6562-3.6562-13.312 0s-3.6562 9.6562 0 13.312zm-288.84-168.47c-1.125 0.5625-2.25 1.125-3.2812 1.6875 0-0.28125 0.09375-0.65625 0.09375-1.0312 1.125-0.1875 2.1562-0.46875 3.1875-0.65625zm-6.375 27.281c11.344-10.781 26.062-17.344 42.281-17.344 21.656 0 40.781 11.719 52.406 29.625-2.4375-3.0938-15.75-18-39.656-18-10.969 0-19.594 3.75-25.406 7.5938-5.9062 3.8438-9 7.7812-9.2812 8.0625-3.1875 4.0312-2.5312 9.8438 1.4062 13.031 4.0312 3.2812 9.8438 2.625 13.219-1.3125 0.28125-0.28125 7.3125-8.625 20.062-8.625 8.1562 0 14.344 2.625 18.562 5.3438s6.4688 5.5312 6.6562 5.8125c1.875 2.4375 4.6875 3.6562 7.5 3.6562 1.9688 0 3.8438-0.5625 5.5312-1.7812 3.5625-2.7188 4.7812-7.4062 3-11.25 6.5625 10.875 10.312 23.812 10.312 37.688 0 13.125-3.375 25.312-9.1875 35.812-0.75 1.2188-1.6875 2.8125-2.8125 4.6875-11.625 17.719-30.75 29.344-52.312 29.344-16.125 0-30.75-6.4688-42.094-17.062-2.8125-35.438-3.1875-72-0.1875-105.28zm158.72 27.469c1.7812 1.5 3.9375 2.25 6.0938 2.25 2.625 0 5.1562-1.125 7.0312-3.1875 0.28125-0.28125 6.75-7.2188 23.531-8.0625 17.25-0.84375 25.031 5.5312 25.219 5.625 3.9375 3.4688 9.8438 3.1875 13.312-0.65625 3.375-3.9375 3.0938-9.8438-0.75-13.312-1.4062-1.125-13.875-11.531-38.719-10.312-24.188 1.125-34.875 12.281-36.656 14.438 11.531-19.031 31.312-31.594 53.719-31.594 35.531 0 64.406 31.312 64.406 69.844s-28.875 69.844-64.406 69.844-64.312-31.312-64.312-69.844c0-12.75 3.1875-24.656 8.7188-34.875-1.125 3.4688-0.09375 7.3125 2.8125 9.8438zm68.156-249.19c1.4062 0 2.7188 0 4.125 0.09375-12 3.0938-19.5 5.8125-19.5 5.8125s-4.9688-2.0625-13.406-4.9688c9.5625-0.5625 19.125-0.9375 28.781-0.9375zm-266.16 82.125c-31.875 70.219-36.656 154.59-36.656 154.59l36.75-26.156c6.2812-4.5 14.062-7.7812 22.688-10.5-0.65625 4.4062-1.125 8.9062-1.5938 13.5-14.062 15.844-22.781 37.219-22.781 60.656s8.625 44.531 22.5 60.375c1.875 22.219 4.7812 43.875 8.3438 64.219-8.0625 100.22-23.156 166.97-44.062 232.31-41.531 22.5-74.25 55.406-91.688 95.25l-10.688 24.469c-56.625-78-90.094-173.81-90.094-277.41 0-162.38 82.219-306 207.28-391.31zm18.469 205.78c-0.84375-4.4062-1.3125-9-1.3125-13.688s0.46875-8.9062 1.2188-13.125c-0.1875 8.8125-0.09375 17.812 0.09375 26.812zm247.69 658.97c-105.38 0-202.69-34.594-281.44-93 13.031-41.156 42.094-62.812 44.062-64.312 4.2188-3 5.25-8.9062 2.25-13.031-3.0938-4.2188-8.9062-5.25-13.125-2.25-0.9375 0.65625-23.062 16.688-39.75 47.531-3.1875 5.8125-6.2812 12.469-9 19.969-27.094-21.844-51.656-46.688-73.312-73.875l14.812-34.031c30.562-69.938 113.91-116.91 207.28-116.91h64.125c2.3438 35.625 28.875 62.812 68.906 69.938 6.375 1.125 13.031 1.6875 19.688 1.6875 41.906 0 87.562-22.688 106.59-71.625h88.5c90.562 0 168.84 43.031 202.12 106.59-83.719 133.97-232.41 223.31-401.72 223.31z"/>
 </g>
</svg>
